<mxfile host="app.diagrams.net" modified="2024-04-08T08:56:22.019Z" agent="Mozilla/5.0 (Windows NT 10.0; Win64; x64) AppleWebKit/537.36 (KHTML, like Gecko) Chrome/122.0.0.0 Safari/537.36" version="24.2.2" etag="42-Zwe1tHc3f73ftwq_d" type="github">
  <diagram name="Страница — 1" id="H3grAjjbLxZKN3bSA5vu">
    <mxGraphModel>
      <root>
        <mxCell id="0" />
        <mxCell id="1" parent="0" />
      </root>
    </mxGraphModel>
  </diagram>
</mxfile>
